<svg xmlns="http://www.w3.org/2000/svg" id="canvas" viewBox="170.023 194.598 813.378 247.792"><path d="M 234.89,232.77 C 233.65 233.56, 232.97 234.47, 232.15 237.27 C 231.33 240.07, 231.68 241.99, 230.79 246.77 C 229.90 251.54, 229.34 254.78, 227.71 261.15 C 226.09 267.52, 224.96 271.29, 222.67 278.61 C 220.37 285.92, 218.87 290.09, 216.22 297.74 C 213.58 305.39, 212.03 309.57, 209.45 316.85 C 206.87 324.12, 205.49 327.94, 203.31 334.11 C 201.13 340.29, 200.06 343.25, 198.57 347.73 C 197.08 352.22, 195.91 353.99, 195.85 356.54 C 195.78 359.10, 196.85 360.14, 198.26 360.52 C 199.66 360.89, 201.57 360.63, 202.88 358.43 C 204.20 356.23, 204.06 354.09, 204.82 349.52 C 205.57 344.94, 205.72 341.84, 206.67 335.57 C 207.61 329.29, 208.19 325.49, 209.53 318.13 C 210.86 310.78, 211.69 306.62, 213.35 298.78 C 215.00 290.95, 215.90 286.76, 217.79 278.96 C 219.69 271.16, 220.70 267.14, 222.83 259.80 C 224.97 252.47, 226.08 248.78, 228.45 242.29 C 230.82 235.79, 232.06 232.64, 234.70 227.33 C 237.34 222.01, 238.77 219.58, 241.65 215.70 C 244.53 211.82, 246.07 210.23, 249.10 207.93 C 252.13 205.62, 253.62 204.94, 256.80 204.17 C 259.98 203.39, 261.51 203.39, 264.99 204.07 C 268.47 204.75, 270.39 205.44, 274.19 207.55 C 277.98 209.67, 280.13 211.17, 283.96 214.64 C 287.79 218.12, 289.90 220.30, 293.35 224.94 C 296.80 229.58, 298.57 232.30, 301.21 237.85 C 303.85 243.40, 305.07 246.50, 306.54 252.70 C 308.01 258.90, 308.60 262.18, 308.57 268.84 C 308.53 275.51, 308.15 279.03, 306.36 286.02 C 304.57 293.01, 303.22 296.70, 299.63 303.79 C 296.04 310.88, 293.71 314.56, 288.40 321.49 C 283.10 328.42, 279.81 331.99, 273.10 338.45 C 266.38 344.92, 262.39 348.20, 254.83 353.83 C 247.27 359.46, 243.00 362.20, 235.31 366.59 C 227.63 370.97, 223.48 372.94, 216.39 375.75 C 209.29 378.56, 205.61 379.58, 199.84 380.63 C 194.06 381.68, 191.26 381.55, 187.50 381.01 C 183.75 380.46, 182.66 379.55, 181.06 377.91 C 179.46 376.26, 179.25 375.48, 179.50 372.77 C 179.75 370.07, 180.70 367.77, 182.32 364.40 C 183.94 361.03, 185.78 359.04, 187.59 355.94 C 189.41 352.84, 191.23 350.82, 191.40 348.91 C 191.56 347.01, 190.32 345.83, 188.40 346.41 C 186.49 347.00, 184.33 348.82, 181.81 351.84 C 179.29 354.86, 177.55 357.30, 175.79 361.49 C 174.04 365.68, 172.79 368.69, 173.06 372.79 C 173.32 376.88, 174.34 379.39, 177.12 381.98 C 179.89 384.57, 182.23 385.24, 186.93 385.73 C 191.63 386.22, 194.47 385.80, 200.61 384.41 C 206.75 383.02, 210.39 381.83, 217.62 378.78 C 224.86 375.73, 229.01 373.69, 236.80 369.16 C 244.58 364.63, 248.88 361.86, 256.55 356.14 C 264.21 350.42, 268.26 347.12, 275.12 340.56 C 281.98 334.01, 285.35 330.42, 290.84 323.37 C 296.33 316.32, 298.78 312.59, 302.57 305.30 C 306.37 298.01, 307.85 294.21, 309.81 286.93 C 311.76 279.65, 312.23 275.92, 312.36 268.89 C 312.50 261.87, 311.92 258.37, 310.47 251.80 C 309.02 245.23, 307.78 241.96, 305.11 236.04 C 302.45 230.12, 300.66 227.24, 297.13 222.21 C 293.61 217.18, 291.52 214.80, 287.50 210.88 C 283.48 206.97, 281.31 205.16, 277.03 202.62 C 272.76 200.08, 270.46 199.01, 266.12 198.18 C 261.78 197.35, 259.39 197.37, 255.32 198.49 C 251.25 199.60, 249.27 200.86, 245.77 203.77 C 242.28 206.67, 240.80 208.66, 237.86 213.02 C 234.91 217.39, 233.61 219.97, 231.04 225.58 C 228.47 231.19, 227.31 234.41, 225.01 241.06 C 222.71 247.72, 221.64 251.44, 219.54 258.86 C 217.44 266.28, 216.44 270.32, 214.51 278.16 C 212.58 285.99, 211.67 290.19, 209.88 298.02 C 208.09 305.86, 207.23 310.02, 205.58 317.33 C 203.93 324.64, 203.14 328.42, 201.63 334.57 C 200.12 340.72, 199.17 343.67, 198.02 348.07 C 196.87 352.47, 195.78 354.15, 195.86 356.56 C 195.95 358.97, 197.29 359.88, 198.45 360.13 C 199.60 360.38, 200.64 360.02, 201.63 357.82 C 202.61 355.61, 202.28 353.61, 203.37 349.11 C 204.46 344.62, 205.18 341.56, 207.07 335.35 C 208.96 329.13, 210.31 325.31, 212.81 318.02 C 215.31 310.73, 216.85 306.54, 219.57 298.91 C 222.28 291.27, 223.83 287.12, 226.37 279.84 C 228.92 272.55, 230.22 268.81, 232.30 262.49 C 234.38 256.17, 235.33 252.99, 236.77 248.23 C 238.22 243.48, 239.22 241.71, 239.54 238.73 C 239.86 235.75, 239.31 234.52, 238.39 233.33 C 237.46 232.14, 236.14 231.99, 234.89 232.77" style="stroke: black; fill: black;"/><path d="M 355.34,299.65 C 355.99 298.44, 356.04 297.32, 355.25 295.94 C 354.46 294.56, 353.46 293.59, 351.39 292.76 C 349.32 291.93, 347.70 291.44, 344.91 291.79 C 342.13 292.14, 340.58 292.66, 337.46 294.53 C 334.35 296.40, 332.85 297.94, 329.34 301.14 C 325.83 304.33, 323.73 306.35, 319.91 310.51 C 316.09 314.67, 313.82 317.30, 310.26 321.94 C 306.70 326.58, 304.77 329.28, 302.09 333.70 C 299.42 338.13, 297.91 340.31, 296.87 344.06 C 295.82 347.82, 295.77 349.81, 296.87 352.48 C 297.97 355.16, 299.55 356.59, 302.37 357.45 C 305.18 358.32, 307.31 358.12, 310.94 356.79 C 314.58 355.45, 316.46 353.78, 320.56 350.78 C 324.66 347.78, 326.97 345.75, 331.45 341.80 C 335.93 337.84, 338.52 335.35, 342.95 331.00 C 347.39 326.64, 349.79 324.05, 353.62 320.03 C 357.46 316.01, 359.94 314.01, 362.13 310.91 C 364.32 307.80, 364.90 306.11, 364.56 304.50 C 364.22 302.89, 362.41 302.14, 360.43 302.87 C 358.45 303.61, 356.92 305.08, 354.65 308.17 C 352.38 311.25, 351.09 314.06, 349.07 318.29 C 347.05 322.52, 345.97 325.19, 344.55 329.33 C 343.13 333.47, 341.97 335.52, 341.97 339.00 C 341.97 342.47, 342.70 344.33, 344.56 346.72 C 346.42 349.10, 348.11 350.37, 351.27 350.90 C 354.43 351.44, 356.49 350.81, 360.34 349.37 C 364.19 347.93, 366.22 346.44, 370.50 343.71 C 374.78 340.98, 377.16 339.12, 381.72 335.72 C 386.28 332.33, 388.83 330.19, 393.30 326.74 C 397.77 323.29, 400.51 321.19, 404.08 318.46 C 407.66 315.73, 409.72 314.76, 411.15 313.11 C 412.59 311.47, 412.13 310.41, 411.26 310.24 C 410.39 310.07, 408.66 310.31, 406.80 312.27 C 404.95 314.23, 404.04 316.62, 401.99 320.02 C 399.95 323.42, 398.44 325.81, 396.59 329.27 C 394.73 332.73, 393.21 334.37, 392.71 337.33 C 392.21 340.29, 392.66 342.06, 394.09 344.06 C 395.51 346.05, 397.04 347.25, 399.84 347.31 C 402.65 347.37, 404.39 346.27, 408.11 344.36 C 411.84 342.45, 414.00 340.58, 418.46 337.77 C 422.92 334.95, 425.68 333.04, 430.42 330.29 C 435.17 327.53, 437.96 325.91, 442.19 323.99 C 446.42 322.08, 448.89 321.65, 451.58 320.71 C 454.27 319.77, 454.97 319.34, 455.63 319.28 C 456.29 319.23, 455.69 319.32, 454.88 320.44 C 454.07 321.56, 452.81 322.57, 451.59 324.90 C 450.36 327.23, 449.62 329.07, 448.75 332.10 C 447.89 335.12, 447.17 337.01, 447.25 340.02 C 447.33 343.03, 447.68 344.82, 449.17 347.15 C 450.65 349.47, 451.92 350.82, 454.69 351.65 C 457.45 352.48, 459.40 352.46, 463.00 351.30 C 466.61 350.13, 468.50 348.57, 472.70 345.82 C 476.90 343.08, 479.29 341.30, 484.02 337.58 C 488.75 333.86, 491.45 331.59, 496.35 327.22 C 501.26 322.86, 503.94 320.31, 508.55 315.74 C 513.15 311.18, 515.49 308.71, 519.36 304.39 C 523.23 300.08, 525.00 297.89, 527.90 294.16 C 530.79 290.44, 532.33 288.88, 533.84 285.75 C 535.34 282.61, 535.63 281.05, 535.44 278.50 C 535.24 275.94, 534.48 274.65, 532.85 272.97 C 531.22 271.29, 529.70 270.55, 527.28 270.10 C 524.87 269.65, 523.28 269.87, 520.77 270.72 C 518.25 271.56, 516.84 272.49, 514.71 274.33 C 512.57 276.16, 511.54 277.48, 510.08 279.90 C 508.61 282.32, 508.04 283.76, 507.38 286.44 C 506.72 289.12, 506.55 290.60, 506.80 293.30 C 507.05 296.01, 507.48 297.48, 508.63 299.98 C 509.79 302.48, 510.70 303.68, 512.57 305.80 C 514.45 307.92, 515.43 309.38, 518.00 310.60 C 520.57 311.81, 523.44 312.51, 525.42 311.88 C 527.39 311.26, 528.24 309.41, 527.87 307.48 C 527.50 305.56, 525.29 303.88, 523.58 302.24 C 521.86 300.60, 520.70 300.52, 519.30 299.27 C 517.90 298.02, 517.35 297.34, 516.58 296.01 C 515.82 294.67, 515.57 293.99, 515.47 292.58 C 515.38 291.16, 515.57 290.40, 516.10 288.93 C 516.63 287.47, 517.10 286.57, 518.12 285.23 C 519.15 283.89, 519.87 283.28, 521.23 282.24 C 522.58 281.20, 523.62 280.87, 524.89 280.04 C 526.16 279.21, 526.72 278.66, 527.59 278.08 C 528.47 277.51, 528.89 277.10, 529.28 277.15 C 529.67 277.20, 529.84 277.18, 529.53 278.32 C 529.22 279.46, 528.93 280.29, 527.73 282.84 C 526.53 285.40, 525.92 287.38, 523.55 291.09 C 521.18 294.80, 519.51 297.07, 515.90 301.39 C 512.28 305.70, 509.98 308.17, 505.48 312.66 C 500.98 317.14, 498.30 319.66, 493.39 323.81 C 488.49 327.97, 485.74 330.14, 480.96 333.42 C 476.18 336.71, 473.60 338.22, 469.49 340.24 C 465.39 342.25, 463.19 342.59, 460.44 343.52 C 457.70 344.44, 456.88 344.65, 455.76 344.86 C 454.64 345.08, 454.71 345.28, 454.84 344.60 C 454.98 343.92, 455.62 343.27, 456.45 341.45 C 457.28 339.64, 457.96 338.22, 459.01 335.53 C 460.05 332.85, 461.23 331.09, 461.68 328.05 C 462.13 325.01, 462.12 322.97, 461.26 320.35 C 460.40 317.73, 459.66 316.21, 457.37 314.96 C 455.07 313.72, 453.32 313.37, 449.78 314.13 C 446.24 314.89, 444.09 316.51, 439.67 318.77 C 435.25 321.03, 432.54 322.72, 427.66 325.42 C 422.79 328.11, 419.89 329.83, 415.28 332.23 C 410.67 334.63, 408.02 335.76, 404.63 337.41 C 401.25 339.07, 399.79 339.52, 398.36 340.50 C 396.94 341.48, 397.14 342.35, 397.52 342.30 C 397.90 342.26, 398.95 342.00, 400.27 340.26 C 401.59 338.51, 402.23 336.68, 404.12 333.57 C 406.01 330.46, 407.63 328.15, 409.74 324.71 C 411.84 321.26, 413.87 319.39, 414.62 316.36 C 415.37 313.33, 414.83 311.26, 413.49 309.56 C 412.16 307.86, 410.59 307.02, 407.96 307.86 C 405.32 308.69, 403.91 310.77, 400.32 313.72 C 396.74 316.67, 394.39 319.09, 390.04 322.62 C 385.69 326.14, 383.12 328.21, 378.58 331.34 C 374.04 334.47, 371.50 336.10, 367.34 338.29 C 363.18 340.47, 360.91 341.21, 357.79 342.27 C 354.67 343.33, 353.46 343.40, 351.76 343.60 C 350.06 343.81, 349.74 344.12, 349.31 343.30 C 348.87 342.49, 349.17 341.84, 349.59 339.54 C 350.00 337.24, 350.03 335.30, 351.37 331.79 C 352.71 328.29, 354.15 325.82, 356.28 322.01 C 358.42 318.21, 360.38 315.97, 362.03 312.75 C 363.67 309.52, 364.51 307.85, 364.52 305.89 C 364.53 303.92, 363.55 302.72, 362.07 302.92 C 360.58 303.12, 359.54 304.17, 357.09 306.90 C 354.63 309.63, 353.30 312.45, 349.80 316.58 C 346.29 320.71, 343.92 323.31, 339.58 327.55 C 335.23 331.79, 332.58 334.19, 328.08 337.77 C 323.57 341.36, 321.04 343.11, 317.04 345.48 C 313.05 347.86, 310.86 348.44, 308.10 349.64 C 305.35 350.85, 304.48 351.26, 303.26 351.52 C 302.04 351.77, 302.07 352.04, 302.02 350.92 C 301.98 349.81, 302.05 348.82, 303.02 345.92 C 303.98 343.03, 304.58 340.61, 306.86 336.45 C 309.13 332.29, 310.98 329.54, 314.40 325.14 C 317.83 320.74, 320.14 318.18, 323.97 314.44 C 327.80 310.70, 330.04 308.86, 333.57 306.45 C 337.10 304.05, 339.10 303.52, 341.62 302.43 C 344.13 301.35, 344.84 301.21, 346.15 301.01 C 347.46 300.82, 347.49 301.25, 348.16 301.44 C 348.83 301.63, 348.75 301.86, 349.52 301.97 C 350.29 302.07, 350.83 302.43, 352.00 301.96 C 353.16 301.50, 354.69 300.85, 355.34 299.65" style="stroke: black; fill: black;"/><path d="M 559.49,307.50 C 560.93 308.06, 562.68 308.26, 563.90 307.28 C 565.12 306.29, 566.05 304.31, 565.58 302.59 C 565.11 300.86, 563.24 299.10, 561.54 298.64 C 559.83 298.18, 558.02 299.12, 557.05 300.28 C 556.08 301.45, 556.20 303.01, 556.68 304.45 C 557.17 305.89, 558.05 306.93, 559.49 307.50" style="stroke: black; fill: black;"/><path d="M 563.39,308.87 C 561.94 308.80, 561.10 309.51, 559.41 310.65 C 557.73 311.80, 556.74 312.61, 554.96 314.61 C 553.17 316.62, 552.35 318.26, 550.51 320.68 C 548.67 323.10, 547.68 324.38, 545.77 326.72 C 543.87 329.05, 542.73 330.13, 541.00 332.37 C 539.28 334.61, 538.43 335.79, 537.13 337.92 C 535.83 340.05, 535.30 341.11, 534.52 343.01 C 533.73 344.90, 533.53 345.77, 533.20 347.38 C 532.87 348.99, 532.84 349.71, 532.87 351.08 C 532.89 352.44, 533.03 353.10, 533.31 354.21 C 533.59 355.31, 533.82 355.84, 534.28 356.60 C 534.73 357.36, 535.05 357.64, 535.59 358.01 C 536.13 358.39, 536.49 358.35, 537.00 358.47 C 537.52 358.59, 537.65 358.52, 538.17 358.59 C 538.69 358.66, 539.10 358.36, 539.61 358.84 C 540.12 359.31, 540.49 360.87, 540.72 360.99 C 540.95 361.11, 540.93 361.13, 540.76 359.44 C 540.58 357.74, 540.24 354.19, 539.85 352.53 C 539.46 350.87, 538.90 350.94, 538.81 351.12 C 538.72 351.30, 539.09 352.95, 539.39 353.44 C 539.69 353.93, 540.04 353.59, 540.31 353.56 C 540.58 353.52, 540.60 353.43, 540.74 353.27 C 540.87 353.12, 541.00 352.97, 541.01 352.78 C 541.01 352.60, 540.92 352.51, 540.77 352.35 C 540.62 352.19, 540.41 352.22, 540.26 351.97 C 540.10 351.72, 539.96 351.61, 539.99 351.10 C 540.02 350.59, 540.03 350.29, 540.40 349.41 C 540.77 348.53, 541.04 347.99, 541.86 346.68 C 542.67 345.37, 543.20 344.57, 544.48 342.86 C 545.76 341.15, 546.59 340.17, 548.26 338.14 C 549.92 336.12, 550.84 334.93, 552.82 332.73 C 554.79 330.54, 555.97 329.41, 558.12 327.16 C 560.26 324.91, 561.87 323.77, 563.53 321.47 C 565.20 319.17, 565.81 317.74, 566.43 315.65 C 567.06 313.55, 567.25 312.33, 566.64 310.98 C 566.03 309.62, 564.83 308.93, 563.39 308.87" style="stroke: black; fill: black;"/><path d="M 691.56,286.35 C 690.42 286.24, 689.84 286.25, 688.50 287.38 C 687.16 288.51, 686.08 289.19, 684.85 291.99 C 683.63 294.79, 683.70 297.09, 682.37 301.39 C 681.05 305.69, 680.16 308.40, 678.24 313.49 C 676.32 318.57, 675.06 321.53, 672.78 326.83 C 670.49 332.13, 669.15 335.06, 666.81 339.98 C 664.48 344.91, 663.23 347.46, 661.11 351.46 C 658.98 355.45, 657.66 357.19, 656.19 359.95 C 654.73 362.72, 654.29 363.70, 653.78 365.28 C 653.28 366.85, 653.39 367.23, 653.67 367.83 C 653.95 368.43, 654.79 368.32, 655.19 368.27 C 655.58 368.22, 656.20 367.51, 655.63 367.58 C 655.06 367.65, 652.77 368.12, 652.33 368.61 C 651.89 369.10, 652.65 369.70, 653.44 370.04 C 654.23 370.39, 655.13 370.66, 656.29 370.34 C 657.45 370.02, 657.99 369.88, 659.24 368.44 C 660.49 367.00, 661.13 366.05, 662.52 363.14 C 663.91 360.22, 664.42 358.08, 666.20 353.88 C 667.98 349.67, 669.15 347.10, 671.40 342.10 C 673.64 337.10, 674.99 334.16, 677.41 328.89 C 679.83 323.62, 681.17 320.66, 683.51 315.73 C 685.85 310.79, 687.00 308.15, 689.12 304.21 C 691.24 300.27, 692.90 298.76, 694.10 296.05 C 695.29 293.33, 695.07 292.28, 695.09 290.65 C 695.12 289.02, 694.93 288.75, 694.22 287.89 C 693.52 287.03, 692.71 286.45, 691.56 286.35" style="stroke: black; fill: black;"/><path d="M 675.68,287.07 C 676.99 287.22, 677.52 286.62, 679.11 285.78 C 680.69 284.94, 681.41 284.36, 683.61 282.87 C 685.80 281.37, 686.91 279.84, 690.07 278.30 C 693.24 276.75, 695.44 276.06, 699.42 275.12 C 703.39 274.18, 705.85 273.81, 709.95 273.59 C 714.06 273.36, 716.37 273.43, 719.95 274.00 C 723.52 274.57, 725.35 275.31, 727.83 276.43 C 730.31 277.55, 731.27 278.26, 732.36 279.60 C 733.44 280.93, 733.54 281.22, 733.26 283.09 C 732.98 284.96, 732.80 286.19, 730.96 288.96 C 729.11 291.73, 727.55 293.68, 724.03 296.96 C 720.50 300.24, 717.91 302.19, 713.33 305.37 C 708.75 308.56, 705.74 310.26, 701.13 312.87 C 696.52 315.49, 693.80 316.44, 690.28 318.45 C 686.75 320.46, 684.98 320.99, 683.51 322.92 C 682.03 324.86, 682.12 326.23, 682.88 328.14 C 683.65 330.05, 684.82 331.40, 687.33 332.49 C 689.85 333.59, 691.83 333.18, 695.45 333.62 C 699.08 334.06, 701.50 333.93, 705.45 334.70 C 709.41 335.48, 711.81 336.09, 715.23 337.49 C 718.66 338.90, 720.39 339.94, 722.57 341.72 C 724.75 343.51, 725.38 344.45, 726.14 346.41 C 726.89 348.36, 727.12 349.03, 726.36 351.48 C 725.60 353.93, 724.94 355.55, 722.34 358.67 C 719.73 361.79, 717.72 363.78, 713.34 367.08 C 708.97 370.38, 705.98 372.22, 700.45 375.16 C 694.92 378.10, 691.53 379.60, 685.70 381.78 C 679.87 383.96, 676.59 384.91, 671.31 386.04 C 666.03 387.17, 663.22 387.44, 659.31 387.45 C 655.39 387.45, 653.82 386.69, 651.73 386.07 C 649.64 385.46, 649.22 385.39, 648.87 384.36 C 648.53 383.32, 649.01 382.98, 650.00 380.90 C 651.00 378.82, 651.37 377.12, 653.85 373.97 C 656.32 370.82, 658.14 368.77, 662.39 365.15 C 666.64 361.53, 669.38 359.57, 675.09 355.87 C 680.80 352.17, 684.19 350.31, 690.95 346.65 C 697.71 342.99, 701.51 341.16, 708.89 337.58 C 716.27 333.99, 720.32 332.25, 727.85 328.74 C 735.39 325.22, 739.34 323.49, 746.55 320.01 C 753.77 316.53, 757.43 314.78, 763.94 311.34 C 770.44 307.90, 773.62 306.14, 779.07 302.83 C 784.51 299.51, 786.98 297.79, 791.15 294.77 C 795.31 291.75, 797.25 290.44, 799.88 287.72 C 802.51 284.99, 803.60 283.64, 804.28 281.15 C 804.95 278.65, 804.54 277.06, 803.25 275.24 C 801.95 273.41, 800.41 272.26, 797.79 272.01 C 795.18 271.77, 793.27 272.18, 790.15 274.00 C 787.04 275.83, 785.60 277.72, 782.21 281.14 C 778.82 284.56, 776.87 286.66, 773.21 291.10 C 769.54 295.54, 767.46 298.21, 763.89 303.35 C 760.33 308.50, 758.42 311.42, 755.39 316.83 C 752.36 322.24, 750.86 325.15, 748.72 330.40 C 746.58 335.65, 745.64 338.35, 744.68 343.08 C 743.73 347.82, 743.39 350.11, 743.95 354.09 C 744.52 358.06, 745.23 360.15, 747.52 362.95 C 749.82 365.74, 751.76 366.96, 755.43 368.05 C 759.10 369.15, 761.42 369.00, 765.88 368.43 C 770.34 367.86, 772.79 367.02, 777.74 365.19 C 782.68 363.37, 785.41 361.96, 790.60 359.31 C 795.79 356.66, 798.59 354.93, 803.68 351.93 C 808.76 348.93, 811.46 347.15, 816.01 344.31 C 820.57 341.47, 822.89 339.97, 826.46 337.74 C 830.03 335.50, 831.96 334.96, 833.86 333.13 C 835.76 331.30, 836.02 330.12, 835.95 328.59 C 835.87 327.05, 835.07 326.14, 833.50 325.44 C 831.94 324.75, 830.37 324.43, 828.12 325.12 C 825.86 325.80, 824.38 326.71, 822.21 328.86 C 820.05 331.02, 819.29 333.02, 817.28 335.89 C 815.28 338.75, 813.91 340.20, 812.19 343.17 C 810.46 346.15, 809.40 347.76, 808.67 350.76 C 807.94 353.76, 807.89 355.47, 808.55 358.18 C 809.22 360.88, 810.00 362.39, 812.00 364.28 C 814.00 366.18, 815.59 367.04, 818.55 367.64 C 821.51 368.24, 823.48 368.14, 826.80 367.27 C 830.12 366.40, 831.91 365.23, 835.13 363.30 C 838.36 361.36, 840.07 360.08, 842.94 357.59 C 845.80 355.09, 847.31 353.70, 849.46 350.83 C 851.62 347.96, 852.77 346.35, 853.70 343.25 C 854.64 340.14, 854.67 338.25, 854.14 335.29 C 853.61 332.33, 852.82 330.75, 851.05 328.46 C 849.27 326.17, 847.81 325.09, 845.26 323.86 C 842.71 322.62, 840.91 322.17, 838.30 322.27 C 835.68 322.37, 833.96 322.86, 832.19 324.38 C 830.42 325.90, 829.54 327.59, 829.45 329.87 C 829.35 332.15, 829.82 333.98, 831.72 335.78 C 833.62 337.58, 835.32 338.28, 838.93 338.87 C 842.53 339.46, 844.89 338.99, 849.74 338.71 C 854.59 338.43, 857.50 338.13, 863.20 337.46 C 868.90 336.79, 872.19 336.26, 878.23 335.36 C 884.27 334.46, 887.64 333.83, 893.41 332.97 C 899.18 332.11, 902.29 331.56, 907.09 331.06 C 911.90 330.56, 914.36 330.88, 917.41 330.47 C 920.47 330.06, 921.51 329.63, 922.38 329.00 C 923.24 328.37, 922.91 327.60, 921.74 327.30 C 920.57 327.00, 919.00 326.46, 916.53 327.50 C 914.06 328.53, 912.58 330.25, 909.40 332.45 C 906.22 334.66, 904.10 336.20, 900.63 338.52 C 897.16 340.85, 894.89 341.85, 892.04 344.08 C 889.19 346.31, 887.59 347.35, 886.39 349.65 C 885.20 351.96, 885.24 353.61, 886.08 355.62 C 886.93 357.62, 888.12 358.95, 890.60 359.67 C 893.09 360.40, 894.93 360.11, 898.52 359.23 C 902.11 358.36, 904.25 357.04, 908.56 355.30 C 912.88 353.56, 915.48 352.39, 920.09 350.55 C 924.71 348.70, 927.37 347.57, 931.63 346.06 C 935.88 344.55, 938.44 344.01, 941.35 342.98 C 944.26 341.96, 945.29 341.32, 946.18 340.95 C 947.06 340.57, 946.45 340.09, 945.77 341.11 C 945.08 342.12, 944.41 343.04, 942.75 346.00 C 941.10 348.96, 940.17 351.42, 937.51 355.91 C 934.84 360.39, 933.04 363.19, 929.44 368.44 C 925.85 373.68, 923.69 376.62, 919.54 382.12 C 915.40 387.62, 913.07 390.61, 908.74 395.93 C 904.41 401.25, 902.09 404.02, 897.88 408.73 C 893.67 413.44, 891.52 415.75, 887.68 419.46 C 883.84 423.18, 881.94 424.89, 878.69 427.29 C 875.45 429.68, 873.71 430.25, 871.44 431.44 C 869.17 432.63, 868.46 432.99, 867.34 433.24 C 866.23 433.49, 866.14 433.34, 865.89 432.69 C 865.65 432.04, 865.91 431.55, 866.12 430.00 C 866.33 428.44, 866.25 427.49, 866.94 424.91 C 867.63 422.33, 867.71 420.49, 869.55 417.10 C 871.40 413.71, 872.73 411.67, 876.16 407.96 C 879.58 404.25, 881.86 402.24, 886.67 398.54 C 891.48 394.84, 894.42 392.94, 900.18 389.45 C 905.94 385.97, 909.28 384.24, 915.48 381.12 C 921.67 378.01, 925.09 376.52, 931.16 373.90 C 937.23 371.28, 940.32 370.03, 945.82 368.01 C 951.32 365.99, 953.97 365.15, 958.66 363.80 C 963.34 362.45, 965.77 362.07, 969.27 361.26 C 972.76 360.44, 974.11 360.50, 976.14 359.75 C 978.17 358.99, 978.58 358.27, 979.43 357.48 C 980.28 356.69, 980.29 356.42, 980.38 355.80 C 980.47 355.18, 980.27 354.83, 979.87 354.39 C 979.46 353.95, 979.44 353.86, 978.36 353.60 C 977.28 353.35, 976.62 352.80, 974.45 353.11 C 972.28 353.43, 971.00 353.98, 967.52 355.17 C 964.05 356.36, 961.72 357.29, 957.07 359.05 C 952.42 360.82, 949.77 361.75, 944.27 363.99 C 938.76 366.22, 935.66 367.50, 929.55 370.22 C 923.44 372.94, 920.00 374.44, 913.70 377.57 C 907.40 380.70, 904.02 382.41, 898.06 385.86 C 892.10 389.30, 889.06 391.14, 883.90 394.78 C 878.74 398.42, 876.28 400.34, 872.26 404.05 C 868.24 407.76, 866.54 409.69, 863.79 413.33 C 861.04 416.97, 859.74 418.78, 858.52 422.25 C 857.29 425.72, 857.11 427.75, 857.68 430.67 C 858.25 433.60, 859.40 435.15, 861.36 436.88 C 863.33 438.62, 864.82 439.20, 867.49 439.35 C 870.17 439.51, 871.79 439.24, 874.74 437.68 C 877.68 436.11, 878.97 434.53, 882.22 431.54 C 885.47 428.54, 887.21 426.71, 890.97 422.70 C 894.72 418.68, 896.82 416.31, 900.99 411.46 C 905.17 406.62, 907.47 403.81, 911.84 398.45 C 916.21 393.09, 918.55 390.10, 922.85 384.66 C 927.14 379.22, 929.37 376.33, 933.31 371.25 C 937.25 366.17, 939.32 363.61, 942.55 359.26 C 945.77 354.91, 947.68 353.05, 949.43 349.49 C 951.18 345.93, 951.74 344.14, 951.30 341.47 C 950.86 338.80, 949.61 337.23, 947.23 336.14 C 944.85 335.05, 942.94 335.20, 939.37 336.02 C 935.81 336.83, 933.69 338.47, 929.40 340.22 C 925.10 341.97, 922.53 343.11, 917.90 344.77 C 913.28 346.42, 910.58 347.33, 906.28 348.48 C 901.98 349.62, 899.56 349.74, 896.40 350.50 C 893.24 351.26, 891.94 351.50, 890.48 352.29 C 889.02 353.08, 888.88 354.05, 889.11 354.46 C 889.34 354.86, 890.07 355.10, 891.62 354.33 C 893.18 353.57, 894.26 352.48, 896.90 350.63 C 899.55 348.78, 901.41 347.19, 904.84 345.08 C 908.27 342.98, 910.60 341.94, 914.06 340.12 C 917.51 338.30, 919.88 338.03, 922.10 335.98 C 924.32 333.93, 924.92 332.07, 925.17 329.88 C 925.42 327.69, 925.02 326.27, 923.35 325.02 C 921.68 323.76, 920.23 323.45, 916.82 323.59 C 913.41 323.74, 911.14 324.81, 906.30 325.74 C 901.47 326.67, 898.41 327.27, 892.66 328.24 C 886.91 329.21, 883.55 329.82, 877.57 330.59 C 871.59 331.35, 868.29 331.80, 862.75 332.06 C 857.21 332.33, 854.28 332.35, 849.85 331.91 C 845.42 331.48, 843.44 330.49, 840.59 329.88 C 837.73 329.28, 836.89 328.87, 835.59 328.88 C 834.28 328.89, 834.13 329.40, 834.05 329.91 C 833.98 330.42, 834.39 331.01, 835.20 331.43 C 836.01 331.85, 836.77 331.83, 838.09 332.01 C 839.41 332.20, 840.43 332.01, 841.80 332.37 C 843.16 332.72, 843.98 332.96, 844.91 333.79 C 845.84 334.62, 846.29 335.17, 846.45 336.52 C 846.60 337.87, 846.43 338.69, 845.69 340.54 C 844.95 342.40, 844.38 343.64, 842.76 345.79 C 841.14 347.94, 839.95 349.33, 837.59 351.29 C 835.22 353.25, 833.58 354.29, 830.91 355.58 C 828.24 356.87, 826.56 357.09, 824.23 357.74 C 821.91 358.39, 820.85 358.61, 819.30 358.83 C 817.75 359.05, 817.21 359.17, 816.49 358.83 C 815.78 358.48, 815.62 358.18, 815.73 357.12 C 815.84 356.06, 816.18 355.33, 817.04 353.51 C 817.90 351.70, 818.48 350.31, 820.02 348.04 C 821.55 345.76, 822.61 344.21, 824.74 342.14 C 826.87 340.07, 828.75 339.46, 830.67 337.68 C 832.60 335.91, 833.47 335.02, 834.38 333.27 C 835.29 331.52, 835.39 330.33, 835.22 328.95 C 835.06 327.57, 834.72 326.70, 833.54 326.37 C 832.36 326.04, 831.41 326.00, 829.30 327.29 C 827.20 328.58, 826.21 330.28, 823.00 332.83 C 819.78 335.38, 817.58 337.06, 813.22 340.04 C 808.86 343.02, 806.18 344.80, 801.20 347.74 C 796.23 350.68, 793.40 352.33, 788.34 354.73 C 783.28 357.14, 780.52 358.33, 775.89 359.77 C 771.26 361.21, 768.88 361.63, 765.19 361.93 C 761.49 362.22, 759.88 361.95, 757.40 361.26 C 754.92 360.57, 754.25 360.11, 752.77 358.48 C 751.30 356.84, 750.59 355.97, 750.02 353.08 C 749.45 350.19, 749.30 348.20, 749.92 344.01 C 750.54 339.82, 751.25 337.13, 753.14 332.14 C 755.03 327.15, 756.44 324.26, 759.36 319.06 C 762.28 313.85, 764.18 310.98, 767.76 306.11 C 771.34 301.24, 773.47 298.66, 777.26 294.69 C 781.04 290.72, 783.20 288.85, 786.69 286.27 C 790.18 283.69, 792.25 283.20, 794.70 281.77 C 797.15 280.33, 797.87 279.93, 798.92 279.10 C 799.97 278.27, 799.97 277.69, 799.94 277.62 C 799.91 277.55, 799.69 277.57, 798.77 278.76 C 797.85 279.95, 797.44 281.09, 795.33 283.55 C 793.21 286.01, 791.88 287.87, 788.20 291.05 C 784.53 294.24, 782.13 296.05, 776.95 299.49 C 771.76 302.93, 768.63 304.73, 762.26 308.24 C 755.90 311.75, 752.27 313.53, 745.11 317.04 C 737.95 320.54, 734.01 322.28, 726.47 325.77 C 718.94 329.27, 714.87 331.00, 707.43 334.53 C 699.98 338.05, 696.15 339.85, 689.24 343.39 C 682.32 346.94, 678.88 348.73, 672.87 352.26 C 666.85 355.79, 663.96 357.57, 659.17 361.05 C 654.38 364.53, 652.18 366.24, 648.92 369.67 C 645.66 373.10, 643.93 374.81, 642.86 378.20 C 641.79 381.60, 642.24 383.81, 643.56 386.65 C 644.89 389.49, 646.28 391.13, 649.48 392.40 C 652.68 393.66, 654.96 393.31, 659.54 392.96 C 664.12 392.61, 666.84 392.05, 672.39 390.65 C 677.93 389.25, 681.23 388.23, 687.27 385.96 C 693.31 383.69, 696.76 382.22, 702.59 379.30 C 708.42 376.38, 711.54 374.67, 716.40 371.35 C 721.27 368.03, 723.61 366.27, 726.91 362.72 C 730.22 359.16, 731.73 357.32, 732.93 353.57 C 734.14 349.83, 734.11 347.45, 732.96 343.99 C 731.80 340.54, 730.15 338.87, 727.16 336.29 C 724.16 333.71, 721.97 332.86, 717.99 331.08 C 714.02 329.30, 711.52 328.66, 707.29 327.38 C 703.06 326.10, 700.56 325.40, 696.85 324.69 C 693.13 323.99, 691.11 323.54, 688.71 323.86 C 686.32 324.17, 685.25 325.54, 684.88 326.25 C 684.51 326.97, 685.16 327.89, 686.88 327.44 C 688.60 326.98, 690.06 325.97, 693.47 323.99 C 696.87 322.01, 699.32 320.38, 703.90 317.55 C 708.48 314.72, 711.55 313.06, 716.37 309.84 C 721.19 306.63, 723.94 304.85, 727.99 301.46 C 732.04 298.08, 734.10 296.43, 736.63 292.91 C 739.16 289.40, 740.35 287.41, 740.65 283.89 C 740.96 280.38, 740.11 278.16, 738.15 275.34 C 736.19 272.52, 734.31 271.38, 730.85 269.80 C 727.40 268.21, 725.12 267.94, 720.88 267.41 C 716.63 266.88, 714.20 266.94, 709.64 267.14 C 705.08 267.34, 702.59 267.66, 698.09 268.40 C 693.59 269.14, 691.14 269.56, 687.14 270.82 C 683.14 272.08, 680.91 272.82, 678.10 274.70 C 675.29 276.58, 674.21 278.14, 673.10 280.21 C 671.99 282.28, 672.03 283.67, 672.55 285.04 C 673.06 286.41, 674.37 286.93, 675.68 287.07" style="stroke: black; fill: black;"/></svg>